<?xml version="1.0" encoding="utf-8"?>
<!-- Generator: Adobe Illustrator 16.0.0, SVG Export Plug-In . SVG Version: 6.00 Build 0)  -->
<!DOCTYPE svg PUBLIC "-//W3C//DTD SVG 1.1//EN" "http://www.w3.org/Graphics/SVG/1.1/DTD/svg11.dtd">
<svg version="1.1" id="cover-logo" xmlns="http://www.w3.org/2000/svg" xmlns:xlink="http://www.w3.org/1999/xlink" x="0px" y="0px"
	 width="860.394px" height="860.392px" viewBox="16.304 16.303 860.394 860.392"
	 enable-background="new 16.304 16.303 860.394 860.392" xml:space="preserve">
<a xlink:href="../newgallery/everyday.html"  target="_parent">
	<path fill="none" stroke="#FFFFFF" stroke-width="10" d="M655.865,736.976C719.184,871.697,871.698,613.824,871.698,465.9
		c0-98.993-11.959-199.931-63.32-274.56c-41.264-59.886-103.504-99.605-167.116-132.672
		c-58.223-30.198-129.48-37.365-198.779-37.365c-75.081,0-134.381,18.528-196.131,53.438
		c-66.75,37.775-136.047,86.912-175.842,153.964C29.244,298.217,21.304,404.374,21.304,492.31
		c0,66.644,13.723,106.978,38.521,163.997c32.347,74.834,43.029,83.74,106.74,130.317c70.572,51.595,187.408,85.07,280.229,85.07
		c66.554,0,238.965-0.146,163.884-137.834c-1.273-2.252-16.859,20.637-22.643,20.637h-52.83c-5.783,0-13.036-4.155-15.584-11.217
		c-0.883-2.662-7.059-8.836-9.41-9.041c-56.947-5.322-89.586-4.16-141.635,1.164c-2.549,0.205-4.313,6.467-5.096,9.129
		c-2.157,8.699-11.565,9.836-17.349,9.836l-50.479,0.414c-5.782,0-10.095,0.412-13.918-4.193c-1.765-2.049-6.86-11.67-9.214-12.487
		c-5.587-1.845-21.662-2.049-21.662-2.049c-19.31,0-38.03-8.496-51.165-23.441c-12.153-13.615-17.937-31.018-16.663-48.729
		c0,0,3.626-92.748,6.47-158.879c0,0,0.686-38.184,6.371-59.478c2.744-10.34,7.646-35.303,7.646-35.303
		c1.666-20.985,29.503-27.727,48.52-27.727h30.679l9.213-59.699c-17.74-7.778-22.937-17.718-19.897-38.396l1.667-23.037
		c1.667-11.568,8.821-12.287,25.19-17.917c0.588-0.206,20.093-3.789,21.171-3.993c15.879,0.204,31.464,0.614,32.738,0.716
		c73.121-0.613,140.359,15.662,207.698,45.86c23.132,10.442,58.613,24.365,55.574,45.146c-1.765,12.079-7.744,22.521-16.957,29.688
		c-5.293,4.196-11.37,6.755-17.545,7.984l-3.822,20.985l71.258-7.575c19.212,0,35.481,13.395,36.364,37.044
		c1.471,33.475,5.098,65.192,5.098,65.192h11.565c8.724,0,16.858-0.584,28.914,12.52c9.607,10.441-14.31,19.48-22.936,19.48h-14.997
		c0,0,19.016,129.791,8.724,171.15c-6.175,24.364-4.118,22.002-16.271,35.616C676.253,732.48,651.159,726.944,655.865,736.976z"/>
	<rect x="20.997" y="20.996" fill-opacity="0" stroke="#FFFFFF" stroke-width="0" width="851.007" height="851.008"/>
</a>
</svg>
