<?xml version="1.0" encoding="utf-8"?>
<!-- Generator: Adobe Illustrator 16.0.0, SVG Export Plug-In . SVG Version: 6.00 Build 0)  -->
<!DOCTYPE svg PUBLIC "-//W3C//DTD SVG 1.1//EN" "http://www.w3.org/Graphics/SVG/1.1/DTD/svg11.dtd">
<svg version="1.1" id="cover-logo" xmlns="http://www.w3.org/2000/svg" xmlns:xlink="http://www.w3.org/1999/xlink" x="0px" y="0px"
	 width="851.291px" height="851.766px" viewBox="60.568 1369.526 851.291 851.766"
	 enable-background="new 60.568 1369.526 851.291 851.766" xml:space="preserve">
<a xlink:href="../newgallery/goldenlogos.html"  target="_parent">
	<rect x="60.71" y="1370.142" fill-opacity="0" stroke="#FFFFFF" stroke-width="0" width="851.007" height="851.008"/>
	<path fill="none" stroke="#FFFFFF" stroke-width="10" d="M209.626,1945.63c0-52.809,0-98.695,0-151.5c0-50.74,0-101.48,0-152.219
		c0-30.379,25.408-17.861,53.15-17.861c95.67,0,186.56-13.92,282.228-13.92c25.48-3.348,207.391,3.93,217.381,13.92
		c11.209,11.209,0,90.545,0,106.299c0,35.436,4.982,70.867,4.982,106.301c0,40.164-4.982,80.33-4.982,120.492
		c0,15.518-42.021,9.563-57.381,9.563c-23,5-25.496,23.275-25.5,41.926c-0.002,10.982-0.588,22.264,1.004,32.992
		c4.318,29.113,21.418,78.236,57.469,81.217c29.814,2.461,56.223-25.814,73.346-46.529c57.336-69.363,99.779-171.504,99.779-262.186
		c0-98.994-11.959-199.934-63.318-274.563c-41.266-59.883-103.506-99.604-167.117-132.67
		c-58.225-30.197-129.48-37.365-198.779-37.365c-75.082,0-134.38,18.529-196.13,53.439
		c-66.75,37.773-136.047,86.912-175.842,153.963c-41.266,69.512-49.205,175.67-49.205,263.604c0,66.646,13.723,106.98,38.52,163.998
		c32.35,74.834,43.029,83.74,106.74,130.316c70.572,51.596,187.406,85.068,280.23,85.07c52.771,0,127.309,13.711,172.309-50.289
		c9.004-12.809,15-16,15-45c0-10.641-1.395-21.439-6-31c-5.137-10.666-11.986-37.355-17-48c-4.926-10.471-10.904-35.189-17-46
		c-15.5-27.5-23-28-49-30.5c-95.67,0-226.06-4.92-321.728-4.92c-18.811,0-41.25,4.043-41.25-18.58l-0.021,3.5
		c0-187.865,140.416-325.5,328.279-325.5c117.418,0,202.721,85.582,202.721,203c0,70.445-47.229,137.58-117.68,137.58
		c-46.967,0-85.041-38.074-85.041-85.041c0-23.48,19.037-42.521,42.521-42.521s42.521,19.037,42.521,42.521"/>
</a>
</svg>
