<?xml version="1.0" encoding="utf-8"?>
<!-- Generator: Adobe Illustrator 16.0.0, SVG Export Plug-In . SVG Version: 6.00 Build 0)  -->
<!DOCTYPE svg PUBLIC "-//W3C//DTD SVG 1.1//EN" "http://www.w3.org/Graphics/SVG/1.1/DTD/svg11.dtd">
<svg version="1.1" id="cover-logo" xmlns="http://www.w3.org/2000/svg" xmlns:xlink="http://www.w3.org/1999/xlink" x="0px" y="0px"
	 width="868px" height="872px" viewBox="12.697 8.696 868 872" enable-background="new 12.697 8.696 868 872" xml:space="preserve">
<a xlink:href="../newgallery/outland.html"  target="_parent">
	<path fill="none" stroke="#FFFFFF" stroke-width="10" stroke-miterlimit="10" d="M669.582,758.741
		c69.176,79.198,202.116-154.733,202.116-292.841c0-98.993-11.959-199.931-63.32-274.561
		c-41.264-59.886-103.504-99.604-167.115-132.672c-58.224-30.197-129.48-37.364-198.779-37.364
		c-75.081,0-134.381,18.527-196.131,53.438c-66.75,37.775-136.047,86.912-175.842,153.964
		C29.244,298.218,21.304,404.374,21.304,492.31c0,66.644,13.723,106.978,38.521,163.997c32.347,74.834,43.029,83.74,106.74,130.317
		c70.572,51.595,187.408,85.069,280.229,85.069c59.223,0,202.263-0.117,180.154-97.159
		c-37.896-82.237-151.807-117.406-228.473-125.774c-53.827-5.876-108.129-7.26-162.209-11.954
		c-25.301-2.196-74.164-10.99-97.353,1.317c1.677-34.515,38.943-76.751,57.836-105.919c19.402-29.953,29.475-61.756,43.9-93.502
		c22.394-49.279,52.734-98.172,76.04-146.014c10.977-22.533,48.432-63.137,62.117-60.097c18.02,4.003,41.342,69.668,52.335,106.588
		c4.075,13.689,6.316,26.868,10,41.359c5.916,23.277,4.56,21.245-12.399,36.655c-17.812,16.185-40.903,37.247-40.04,63.502
		c1.104,33.552,41.574,55.917,39.993,92c-1.262,28.808-23.651,44.771-39.292,64.149c23.237,8.666,65.254,2.854,90.989,1.548
		c-0.334-24.717,20.675-69.918,7.452-91.594c-9.097-14.913-26.933-18.74-35.595-35.619c-9.04-17.617-10.316-32.675-9.555-52.588
		c1.683-43.999,25.406-76.112,49.961-110.864c18.136-25.668,32.545-51.386,45.541-79.431c6.694-14.448,9.092-33.304,21.896-43.474
		c29.198,42.531,35.61,101.061,62.498,146.207c18.797,31.561,33.61,68.05,56.104,96.672c15.81,20.117,29.612,32.817,41.548,56.801
		c12.296,24.708,28.8,49.02,44.039,72.93c7.789,12.22,20.81,24.833,20.11,38.96c-81.173,4.661-162.732-1.46-243.53,2.605
		c15.457,23.551,54.06,30.622,74.389,49.103c9.46,8.601,12.985,20.361,19.89,29.658C641.771,726.687,664.95,749.541,669.582,758.741
		z"/>
	<rect x="12.697" y="8.696" fill-opacity="0" stroke="#FFFFFF" stroke-width="0" width="868" height="872"/>
</a>
</svg>
