<?xml version="1.0" encoding="utf-8"?>
<!-- Generator: Adobe Illustrator 16.0.0, SVG Export Plug-In . SVG Version: 6.00 Build 0)  -->
<!DOCTYPE svg PUBLIC "-//W3C//DTD SVG 1.1//EN" "http://www.w3.org/Graphics/SVG/1.1/DTD/svg11.dtd">
<svg version="1.1" id="cover-logo" xmlns="http://www.w3.org/2000/svg" xmlns:xlink="http://www.w3.org/1999/xlink" x="0px" y="0px"
	 width="919.341px" height="837.96px" viewBox="-154.116 220.782 919.341 837.96"
	 enable-background="new -154.116 220.782 919.341 837.96" xml:space="preserve">
<a xlink:href="../newgallery/paintingshtml"  target="_parent">
<path fill="none" stroke="#FFFFFF" stroke-width="10" stroke-miterlimit="10" d="M-50.922,970.488
	c0.725,0.32,9.784,6.545,10.409,6.758c0.529,0.185,1.328,0.46,1.534,0.603c0.867,0.735,1.724,1.771,2.645,2.877
	c1.47,1.788,3.141,3.813,5.468,5.294l6.985,4.47c13.739,8.811,27.943,17.911,42.435,26.093
	c27.573,15.574,57.997,23.289,89.341,30.45c3.094,0.708,6.156,0.968,9.117,1.216c1.698,0.147,3.384,0.286,5.061,0.522
	c3.687,0.52,7.361,1.102,11.047,1.677c7.013,1.101,14.263,2.237,21.502,2.945c2.434,0.233,4.86,0.35,7.276,0.35
	c8.668,0,17.922-1.406,29.16-4.447c2.84-0.771,5.716-1.48,8.593-2.189c15.542-3.839,31.608-7.814,44.158-21.016l0.852-0.889
	c6.141-6.431,13.104-13.718,13.015-25.108c-0.026-3.354-0.105-6.7-0.19-10.042c-0.105-4.58-0.222-9.154-0.189-13.74
	c0.03-4.107,0.09-8.218,0.143-12.326l0.122-9.678l-4.865-0.063c-27.811-0.377-51.826-3.476-73.386-9.457
	c-32.026-8.884-55.036-31.152-79.404-54.733c-7.196-6.965-14.638-14.167-22.29-20.952C26.234,823.553-14.133,766.222-30.367,715.751
	c-11.296-35.12-0.037-66.56,11.888-99.851c3.527-9.825,7.166-20,10.249-30.37c12.692-42.688,25.908-65.818,59.346-65.818
	c4.221,0,8.801,0.381,13.612,1.152c17.013,2.713,33.375,9.82,49.192,16.695c19.884,8.636,40.444,17.567,63.232,18.472
	c21.132,0.848,34.279-0.254,46.923-1.295c9.482-0.776,18.437-1.522,30.6-1.522c4.389,0,9.18,0.104,14.78,0.344
	c38.985-0.455,39.716-1.629,41.303-4.215c9.842-15.935-0.636-27.056-9.868-36.865c-4.664-4.96-9.498-10.084-12.216-15.943
	c-4.331-9.35-10.656-17.542-16.774-25.459c-6.313-8.17-12.285-15.891-16.214-24.749c-4.807-10.836-5.161-19.249-1.068-25.695
	c11.497-18.133,56.834-19.148,83.927-19.758c5.061-0.109,9.698-0.222,13.691-0.406c65.64-2.936,121.885,41.757,169.322,83.688
	c7.233,6.399,14.807,12.763,22.126,18.911c43.47,36.532,84.528,71.038,84.502,129.707c0,7.813,0.164,15.95,0.323,24.278
	c0.861,43.248,1.83,92.256-20.355,126.624c-56.495,87.512-162.146,150.866-275.723,165.36c-11.861,1.514-23.522,2.729-34.654,3.606
	l-4.659,0.365l0.439,11.877c0.095,2.978,0.158,5.955,0.211,8.938c0.09,4.839,0.18,9.662,0.46,14.49
	c0.063,1.205,0.106,2.411,0.153,3.622c0.27,6.886,0.545,14.015,4.506,21.147c7.996,14.38,21.682,20.328,32.708,23.908
	c18.73,6.076,39.73,9.879,66.088,11.957c29.778,2.337,58.161,0.931,84.83-4.204c4.977-0.968,9.99-1.835,15.008-2.702
	c12.052-2.095,24.511-4.263,36.525-7.716c28.361-8.171,53.084-23.713,73.514-37.833c6.584-4.542,13.12-9.175,19.583-13.896
	l3.083-2.216c3.876-2.771,7.885-5.627,11.438-9.112c2.978-2.913,5.706-6.065,8.346-9.111c3.992-4.61,7.773-8.969,12.185-12.375
	c11.883-9.17,19.63-21.157,27.124-32.761l0.704-1.09c6.531-10.105,11.053-21.46,15.426-32.443c1.396-3.501,2.787-7.007,4.247-10.461
	c1.666-3.955,2.813-8.027,3.908-11.973c0.603-2.143,1.201-4.272,1.883-6.383l2.561-7.869c8.477-26.004,17.229-52.878,21.518-80.737
	c1.798-11.729,3.818-23.427,5.833-35.125c1.793-10.381,3.58-20.767,5.22-31.174c0.629-3.967,1.274-7.938,1.919-11.904
	c2.544-15.638,5.184-31.805,6.457-47.907c1.392-17.42,1.597-36.521,0.656-58.361c-0.613-14.405-2.687-27.504-6.155-38.934
	c-9.111-29.983-19.234-53.513-31.868-74.042c-0.889-1.438-1.739-2.908-2.586-4.384c-2.151-3.739-4.379-7.599-7.256-11.089
	c-4.489-5.453-9.239-10.789-13.824-15.945c-4.083-4.584-8.153-9.17-12.1-13.876c-7.166-8.562-14.231-17.197-21.296-25.839
	c-7.007-8.562-14.009-17.129-21.111-25.611c-1.564-1.872-3.108-3.775-4.664-5.675c-5.901-7.238-12.004-14.728-19.266-20.947
	c-10.994-9.429-22.602-18.413-33.829-27.103c-6.462-5.002-12.936-10.016-19.318-15.124c-22.872-18.303-49.721-28.896-77.521-39.007
	c-31.175-11.338-63.423-16.728-88.035-20.154c-7.869-1.094-15.731-2.21-23.602-3.331c-24.591-3.496-50.018-7.103-75.147-9.983
	c-24.85-2.852-47.13-4.405-68.113-4.749l-2.285-0.017c-12.771,0-26.136,1.703-39.705,5.062c-11.477,2.829-22.846,6.51-33.846,10.068
	c-8.436,2.729-17.16,5.547-25.791,7.942c-27.135,7.515-54.254,19.821-87.939,39.896c-24.073,14.348-46.854,29.267-67.717,44.332
	c-13.1,9.461-26.087,21.148-38.626,34.734c-12.105,13.12-22.803,27.268-35.142,44.458c-6.577,9.16-12.781,19.578-20.127,33.75
	c-4.553,8.79-8.557,18.552-11.908,29.012l-2.629,8.15c-4.977,15.341-10.121,31.206-13.295,47.335
	c-2.845,14.442-4.13,30.397-4.062,50.208c0.058,18.191,0.947,36.632,1.803,54.459c0.36,7.652,0.73,15.305,1.037,22.957
	c0.328,7.996,0.608,15.986,0.894,23.987c0.656,18.355,1.333,37.33,2.443,55.998c1.111,18.651,2.845,35.517,5.304,51.562
	c4.876,31.92,14.93,62.481,23.138,85.539c3.02,8.466,6.642,18.266,11.454,27.298c8.868,16.643,17.293,31.122,25.743,44.258
	c3.073,4.775,7.474,8.319,11.735,11.745c1.228,0.989,2.454,1.974,3.628,2.979C-58.573,964.391-54.927,967.362-50.922,970.488z"/>
	<rect x="-119.949" y="214.259" fill-opacity="0" stroke="#FFFFFF" stroke-width="0" width="851.007" height="851.008"/>
</a>
</svg>
