<?xml version="1.0" encoding="utf-8"?>
<!-- Generator: Adobe Illustrator 16.0.0, SVG Export Plug-In . SVG Version: 6.00 Build 0)  -->
<!DOCTYPE svg PUBLIC "-//W3C//DTD SVG 1.1//EN" "http://www.w3.org/Graphics/SVG/1.1/DTD/svg11.dtd">
<svg version="1.1" id="cover-logo" xmlns="http://www.w3.org/2000/svg" xmlns:xlink="http://www.w3.org/1999/xlink" x="0px" y="0px"
	 width="861.037px" height="852.552px" viewBox="-143.937 217.133 861.037 852.552"
	 enable-background="new -143.937 217.133 861.037 852.552" xml:space="preserve">
<a>
	<path fill="none" stroke="#FFFFFF" stroke-width="10" d="M264.802,999.034c-6.739,11.678,7.261,21.678,17.261,23.678
		c59,12,114,19,172,18c48-1,95.999-11,136.999-42c19-14,31-31,43.999-50c18-28,29-55,43-84c1-2,0-3,1-5c2-5,6-10,8-16
		c3-9,7-17,10-26c3-10,6-20,9-30c4-16,5-31,6-47c0-73,2-148-23-218c-9-25-20-47-34-70c-27.999-44-54.999-81-87.999-120
		c-17-19-31.999-37-51.999-53c-7-5-13-10-21-15c-13-8-26-15-40-22c-12-5-24-8-37-12c-12-3-24-4-37-6c-11-1-22-1-33-2
		c-68-1-136-3-202,17c-72,23-130,69-181,124c-1,1-1,3-2,4c-7,6-12,13-18,20c-10,13-19,26-28,40c-26,43-45,86-53,136c-1,10-2,21-2,31
		c3,46,3,91,10,137c10,69,32,134,78,189c1,1,1,3,2,4c5,5,9,11,14,16c45,46,96,83,155,108c27,10,54,19,83,15c19-2,41-3,55-19
		c4-6-2-13-6-18c-7-6-15-12-22-18c-5-5-7-11-8-18c-2-22,2-42,0-64c-3-21-10-42-25-58c-10-11-24-17-38-18c-52-1-104,0-156,0
		c-8,0-15,2-23,1c-7-2-14-1-21-3c-3-1-4-4-4-7c-1-17-1-35-1-52c-1-82-3-164-3-246c4-12,4-27,14-36c0-4-1-8,2-11c1-1,4-2,6,0
		c3,4-2,10,3,11c5,2,11,2,16.731,2.272c-5.547,0.373-3.024-0.25,0,0c-8.731,2.728-18.731-2.272-26.731,2.728c-1,1-2,3-2,5
		c2,9-1,18,3,26c1,1,3,3,4,3c8,1,17-1,25,2c72,0,145-1,217-3c4,0,10-1,11-4c6-13,10-25,19-37c2-3,3-6,4-9c-16-2-33-3-49-2
		c-5,1-11,0-16,3s-9,7-14,10c-14,8-29,5-43,5c-35,2-69-2-104.409-2.47c10.606,0,21.214,0,31.821,0
		c-4.412-2.53-6.412-6.53-8.412-11.53c-1-1-2-2-4-3c-1-1-1-3-1-4c-1-2-5-1-7,0c-8,5-20,7-25-1c0-1,3-3,5-3c3,1,6,2,9,4c4-4,8-3,13-4
		c8-1,5-10,5-17c1-5,8-5,9-2c2,4,3,9,7,10c4,0,6-4,6-7c0-10,2-20,5-30c5-1,10-2,15-3c10-1,20,0,30,1c4,1,9,3,8,8c-1,2-5,1-7,1
		c-13-3-25-9-37-1c-1,1,0,3-3,2c-1,0-1-1-2-2c-0.833,0.903-1.167,2.099-2,3c4.303,0.511,1.456,9.929,2.028,12.953
		c1.458,7.702,7.754,3.053,12.844,3.239c-2.119,3.729-3.359-0.382,0,0c-2.872,2.808-3.872,6.808,0.128,9.808c8,5,16,2,24,1
		c4-1,6-7,3-10c1,0,2,0,2,1c-1,0-1-1-2-1c2.435-1.616,1.317,1.78,0,0c6-4,10,2,11,8c1,3,8,3,9,0c2-3,0-8,4-10c1-1,4,0,3,2
		c-2,10,4,17,11,22c1.669-5.021-5.181-3.89,0,0c2-4,1-8,1-12c-1-6-4-12-1-18c7-3,14-1,20,1c2,1,0,4,2.013,6.131
		c-0.007-0.312,0.002-0.62,0.029-0.93c4.004,1.026,3.87-8.254,5.077-10.399c1.881,3.198-1.119,8.198,1.881,9.198
		c5,2,3-7,6.043-9.816c0.043,1.513-1.932,2.169,0,0c0.043,1.513,0.708,7.133,2.954,7.005c3.044-0.174,0.402-5.992,2.247-7.275
		c2.79-1.941,2.735,4.957,4.022,5.768c2.813,1.769,2.43-5.237,2.663-6.734c1.191,1.092,1.462,7.539,4.259,6.256
		c1.612-0.738,0.809-4.383,0.818-5.762c1.552,1.071,2.429,2.496,2.935,4.278c0.313,1.104-0.079,2.473,1.333,2.354
		c2.791-0.229,1.962-6.771,1.837-8.387c-0.138-1.785-0.319-6.103-3.032-5.849c-2.624,0.244-1.343,4.183-3.291,5.311
		c-5.742,3.321-1.695-11.524-6.406-6.867c-1.788,1.77-1.032,5.535-3.312,6.871c-3.403,1.994-3.792-3.451-5.07-5.152
		c-1.791,1.914-1.094,4.724-2,7c-1.349-1.538,0.454-5.94-2.146-6.144c-2.224-0.174-2.675,3.711-2.517,5.221
		c0-0.147-0.127-0.398-0.109-0.636c0.039,0.152,0.071,0.54,0.158,0.654c-2.045-0.835-2.477-3.112-2.387-5.097c-1,1-2,3-4,4
		c-8,2-17,2-25,3c-1,0-2,0-3-1s0-3,2-4c8-2,16,4,23-2c-0.037,1.004,0.512,1.125,1.396,0.643c-0.023,0.037-0.34,0.104-0.354,0.157
		c3.266-1.677-0.852-5.102-2.679-5.676c-2.697-0.849-5.672-0.51-8.456-0.664c4.691,0.484,7.448-2.758,11.699-3.438
		c4.393-0.022,7.393,1.978,7.979-3.157c-0.055,0.268-0.139,0.522-0.252,0.77c0.068-0.249,0.143-0.535,0.252-0.77
		c0.449,1.373,1.002,4.072,2.737,4.353c1.761,0.282,3.239-2.221,3.949-3.484c1.438,2.885,2.771,4.013,3.682,0.633
		c1.22-4.528,2.315-0.716,3.569,1.432c2.296,3.933,3.167-1.889,4.418-3.144c1.918-1.925,2.621,2.94,4,4.548
		c0.128-0.475,0.258-0.81,0.225-1.21c-0.238,0.528-0.193,0.643-0.225,1.21c2.354-4.943,8.122-2.232,12.059-4.201
		c1,4.113,5.568,5.123,9.157,5.805c-0.331-0.319-0.323-0.412-0.657-0.665c6.5,0.861,11.5-1.139,14.5-6.139c3,1,4,3,5,6
		c2,10-3,22,6,29c4,5,3,16-4,16c-20,2-39-2-59-1c-7,0-11,6-17,8c-10,4-21,3-30.638,4.032c0.389,0.238,0.75,0.521,1.177,0.691
		c-0.39-0.24-0.779-0.464-1.177-0.691c2.263,1.378,4.863,3.531,3.774,6.478c-0.971,2.626-4.202,3.699-5.879,5.781
		c4.711,1.826,10.149,1.021,15.086,1.096c8.658,0.611,16.658-4.389,22.658-11.389c4-4,10-7,16-7c17,1,35,1,52,2c5,0,11-1,12-7
		c0-17,6-32,11-47c7-19,17-37,33-51c11-9,24-11,37-10c1,0,1-1,1.859-1.951c-0.655,3.171-2.433,0.178,0,0
		c-20.859,19.951-37.859,40.951-54.859,64.951c-6,8-12,13-14,22c-1,3,1,6,4,6c24,1,49-2,72.523,0.782
		c-4.912,0.014-10.113,0.611-14.862-0.955c4.942-0.775,9.955,0.45,14.862,0.955c-25.523,0.218-52.523-0.782-78.523,0.218
		c-2,0-4,1-4.437,4.735c2.232-0.727,1.26-4.821,0,0c3.373-1.67,7.604-0.898,10.437-3.735c-4.088-0.038-8.278-0.559-10.437,3.735
		c3.049-0.69,7.356-1.063,10.014-2.843c-2.398-0.563-8.535,0.701-10.014,2.843c6.437-2.735,13.437-2.735,19.437-2.735
		c59-2,117-1,176,0c4,0,7,1,11,3c1,0,3,0,3-1s-1-3-2-3c-37-3-73-2-108.627-2.454c4.361-0.007,8.736-0.182,13.086,0.24
		c-4.362,0.282-8.729-0.088-13.086-0.24c5.627-1.546,10.627-0.546,16.627-0.546c21,2,41,1,62,1c3,0,7-1,10-1c1,0,1,1,2,1
		c5-1,4-7,2.237-10.235c0.668,0.45,1.188,1.076,1.502,1.812c-0.816-0.275-1.354-0.965-1.502-1.812
		c3.763,3.235,5.763,10.235,11.763,9.235c4-9-6-15-9-22c-3-5-6-9-9-13c-14-16-28-29-42-44c-2-3-6-6-5-10l1-1c4,2,5,11,11,7
		c2-2,2-8,5-7c20,2,31,23,40,40c1,1,2,2,3,3c7,12,10,25,14,38c2,6,7,10,10,15c1,2,0,4,0,6c-1,4-5,9,0,11s11,2,16,1
		c26-5,50.999-5,76.999-6c2,0,5,1,7,2c-2.172,1.243-4.243-2.93,0,0c-2,1-5,2-7,2c-31,2-60.999-1-91.999,5l-1,2c1,2,3,3,4,5
		c2,6,4,12,7,18c1,2,1,4,2,6c5,9,11,17,20,21c8,2,15-3,20.422-10.198c1.672,2.978-5.171,4.098,0,0
		c2.577,4.198,4.577,11.198,10.577,11.198c21,1,42,2,63-2c3,0,6,3,9,2c6-2,5-8,6-13c0-12,1-25-1-37c-7-8-17-4-25.9-4.194
		c2.934-1.629,3.801,0.705,0,0c4.9-2.806,10.9-0.806,16.9-2.806c2-1,4-5,6-4c5,3,8,9,11.999,14c0,84,0,168,3,252c0,31,2,62-2,93
		c0,1-1,2-2,2c-60.999,6-120.998,2-181.463,3.647c-27.939-1.396-121.739-30.719-158.193-43.719
		c-27.391-9.837-33.434-19.425-47.343-40.93c-17.73-27.41-25-61.639-25-100.176c0-37.998,12.684-86.58,28-113.824
		c19.831-35.275,56.8-44.061,106-44.061c43.722,0,94.374,12.047,126,43.061c31.45,30.84,44,80.523,44,124
		c0,36.803-13.146,69.028-34.896,93.985c-13.515,15.507-21.865,23.776-40.935,33.025c-12.278,10.88-49.89,27.097-61.373,29.141
		c-7.905,1.407-14.911,2.541-22.246,5.531c-11.056,4.509-23.799,14.613-35.754,14.246c-20.797,2.57-49.303,31.998-56.821,48.784
		c-8.249,18.42-9.862,38.262-10.716,58.187c-0.677,15.804-0.063,31.758,3.847,47.152"/>
<rect x="-138.922" y="217.905" fill-opacity="0" stroke="#FFFFFF" stroke-width="0" width="851.007" height="851.007"/>
</a>
</svg>
