<?xml version="1.0" encoding="utf-8"?>
<!-- Generator: Adobe Illustrator 16.0.0, SVG Export Plug-In . SVG Version: 6.00 Build 0)  -->
<!DOCTYPE svg PUBLIC "-//W3C//DTD SVG 1.1//EN" "http://www.w3.org/Graphics/SVG/1.1/DTD/svg11.dtd">
<svg version="1.1" id="cover-logo" xmlns="http://www.w3.org/2000/svg" xmlns:xlink="http://www.w3.org/1999/xlink" x="0px" y="0px"
	 width="860.392px" height="860.392px" viewBox="-143.581 215.655 860.392 860.392"
	 enable-background="new -143.581 215.655 860.392 860.392" xml:space="preserve">
<a xlink:href="../newgallery/shapes.html"  target="_parent">
	<path fill="none" stroke="#FFFFFF" stroke-width="10" d="M411.367,939.452c-36.396,115.953,73.378,77.629,109.478,53.283
		c74.461-50.058,145.187-127.49,176.271-213.037c16.229-44.877,14.654-83.594,14.654-134.042
		c0-70.688-10.723-140.396-41.412-199.058c-39.441-75.281-99.643-129.936-174.692-170.412
		c-60.591-32.653-137.906-55.531-211.677-55.531c-74.266,0-138.595,15.936-199.481,48.981
		c-54.985,29.818-98.067,75.868-135.053,125.73c-52.329,70.491-88.035,158.875-88.035,253.317
		c0,79.584,8.263,146.459,46.427,210.009c45.74,75.967,107.513,138.343,189.842,174.028
		c52.329,22.585,125.708,38.325,186.498,38.325c26.656,0,63.248-8.311,79.675-44.776c9.244-20.631,17.312-36.763,4.131-82.715
		c-4.328-14.176-24.788-17.794-53.608-24.832c-77.117-18.968-207.35-23.27-207.35-23.27s-28.725-72.643-38.068-94.641
		c-11.41-26.984-31.279-79.39-42-106.568c-8.558-21.704-33.739-82.712-33.739-82.712s30.197-38.717,40.723-51.329
		c23.017-28.061,65.413-82.518,87.543-111.163c14.853-19.163,62.166-77.726,62.166-77.726s57.838,7.82,77.117,11.146
		c29.804,5.182,94.133,15.447,124.135,19.749c26.95,3.91,103.281,13.297,103.281,13.297s18.001,46.733,24.787,61.985
		c11.409,25.42,37.378,86.329,47.902,112.237c12.098,29.82,41.116,110.089,41.116,110.089s-28.625,36.761-38.561,48.688
		c-19.869,23.465-53.901,67.656-73.083,91.806C471.368,863.485,411.367,939.452,411.367,939.452z"/>
	<rect x="-138.889" y="220.347" fill-opacity="0" stroke="#FFFFFF" stroke-width="0" width="851.006" height="851.008"/>
</a>
</svg>
