<?xml version="1.0" encoding="utf-8"?>
<!-- Generator: Adobe Illustrator 16.0.0, SVG Export Plug-In . SVG Version: 6.00 Build 0)  -->
<!DOCTYPE svg PUBLIC "-//W3C//DTD SVG 1.1//EN" "http://www.w3.org/Graphics/SVG/1.1/DTD/svg11.dtd">
<svg version="1.1" id="coverlogo" xmlns="http://www.w3.org/2000/svg" xmlns:xlink="http://www.w3.org/1999/xlink" x="0px" y="0px"
	 width="70.251px" height="39.996px" viewBox="5.582 6.667 70.251 39.996" enable-background="new 5.582 6.667 70.251 39.996"
	 xml:space="preserve">
<path fill="#FFFFFF" d="M47.916,44.423L47.916,44.423c-1.683,0-3.465-0.693-5.147-2.178c-2.97-2.475-4.851-5.84-5.84-10.691
	c-0.99-4.949-0.792-10.096,0.594-16.333c0.099-0.297,0.099-0.594,0.198-0.891c0.198-0.99,0.396-2.079,1.089-3.068
	c0.396-0.495,0.792-0.99,1.287-1.386c0.198-0.099-0.099,0.198,0,0c0.297-0.297,0.99-0.495,1.386-0.495
	c0.693,0,1.089,0.099,1.583,0.198c0.693,0.099,1.188-0.198,1.683-0.297c2.672-0.297,4.949,0.099,7.028,1.188l1.782,0.99
	l-1.881,0.792c-0.792,0.297-1.683,0.297-2.277,0.198c-2.277-0.396-4.554-0.099-6.731,0.792c-1.188,0.495-1.881,1.287-2.178,2.673
	c-0.594,2.673-0.891,5.345-0.99,8.216c-0.099,2.673,0,5.742,0.99,8.711c1.089,3.168,2.376,5.544,4.851,7.128
	c2.673,1.683,4.158,1.485,6.236-1.287c0.198-0.198,0.297-0.396,0.396-0.594l0.099-0.099c0.693-1.98,0.693-3.96-0.099-6.236
	c-0.198-0.496-0.297-0.594-0.297-0.594c-0.297,0-0.693,0.098-0.891,0.197c-1.188,0.396-2.178,0.891-2.97,1.484
	c-0.396,0.297-1.089,0.396-1.683,0.297c-0.495-0.098-0.99-0.396-1.089-0.791c-0.198-0.396-0.099-0.891,0.198-1.188
	c0.099-0.1,0.099-0.199,0.198-0.298c0.297-0.396,0.792-1.188,1.782-1.188c0.099,0,0.198,0.099,0.297,0
	c0.99-0.595,2.277-1.881,3.366-1.881c0.198,0,0.297,0,0.396,0c1.386,0,2.574,0.692,3.366,2.079c0.495,0.891,0.792,1.979,0.891,3.068
	c0,0.396,0.099,0.792,0.099,1.188c0.099,0.891,0.198,1.782,0,2.771c-0.297,3.564-3.167,6.83-6.434,7.425
	C48.807,44.324,48.411,44.423,47.916,44.423z"/>
<path fill="#FFFFFF" d="M74.74,15.902c-0.396-2.672-2.277-4.851-4.949-5.543c-2.673-0.693-5.247-0.396-7.722,0.792l-0.693,0.297
	c-2.276,1.089-4.553,2.277-6.236,4.455l-0.297,0.495c-0.099,0.297-0.297,0.495-0.396,0.792c-0.495,0.792-0.396,1.683,0.396,2.475
	c0.198,0.198,0.594,0.594,1.188,0.594c0.198,0,0.495-0.099,0.693-0.198s0.99-0.594,0.693-1.782c-0.099-0.198,0-0.297,0-0.396
	c1.287-1.287,2.772-2.376,4.355-3.069l0.099,1.386c0.099,1.881,0.198,3.762,0.396,5.643c0.594,6.039,1.287,12.076,1.98,18.016
	l0.099,1.287c0,0.1,0,0.198,0,0.396c0,1.386,0.495,2.078,1.485,2.078h0.099c0.594-0.099,0.99-0.396,1.188-0.594
	c0.495-0.594,0.297-1.386,0.297-1.881c0-0.099,0-0.197,0-0.297c-0.198-2.178-0.495-4.355-0.693-6.434l-0.297-2.277v-1.683
	c2.771-1.386,4.85-3.762,6.434-7.227l0.198-0.297c0.099-0.198,0.198-0.396,0.297-0.594C74.641,20.159,75.037,18.08,74.74,15.902z
	 M70.483,19.367v0.099c-0.792,2.375-2.178,4.454-4.059,6.534v-0.1c-0.297-2.277-0.594-4.652-0.792-7.028
	c0-0.594-0.099-1.188-0.198-1.683c-0.099-0.891-0.198-1.683-0.198-2.475c0-0.693,0-0.693,0.693-0.792
	c0.396-0.099,0.891-0.099,1.287-0.099c0.495,0,0.891,0,1.386,0.099c1.188,0.198,2.178,1.089,2.375,2.178
	c0.099,0.594,0.297,1.287,0.297,1.979C70.78,18.476,70.582,18.971,70.483,19.367z"/>
<path fill="#FFFFFF" d="M25.053,11.808L25.053,11.808c-1.583-0.198-3.167-0.198-5.048,0.099c-0.891,0.099-2.178,1.683-2.277,3.167
	c-0.297,2.97,1.386,5.247,3.168,7.523l0.396,0.495c2.079,2.771,4.455,6.038,6.137,9.8c0.594,1.386,0.792,2.97,0.594,4.652
	c0,1.386-0.594,2.772-1.782,4.059c-2.375,2.673-5.345,4.059-8.711,4.059c-0.594,0-1.188,0-1.881-0.099
	c-3.465-0.495-5.939-1.881-7.523-4.455c-1.089-1.683-1.188-3.563-0.297-5.346c1.287-3.167,5.247-5.74,9.107-5.74
	c0.693,0,1.485,0.098,2.079,0.297c0.198,0.099,0.495,0.099,0.693,0.197l0.297,0.1c0.792,0.099,1.584,0.396,2.376,0.791
	c0.693,0.396,0.891,1.188,0.495,1.881c-0.297,0.594-1.089,0.793-1.683,0.496c-0.594-0.199-1.188-0.298-1.881-0.396
	c-0.495-0.1-1.089-0.1-1.584-0.198h-0.099c-2.871,0-4.851,1.089-6.335,3.465c-0.198,0.198-0.297,0.396-0.495,0.594
	c-0.396,2.178,0.297,3.366,2.574,4.257c3.069,1.287,5.84,1.188,8.513-0.297c2.475-1.287,3.563-3.861,2.771-6.336
	c-1.583-3.365-3.267-6.137-5.246-8.414c-1.683-1.979-2.97-4.157-4.158-6.236l-0.594-1.089c-0.297-0.495-0.396-0.99-0.396-1.485
	c-0.396-1.188-0.891-2.97-0.396-4.949c0.396-2.871,2.871-3.861,3.663-4.158c0.891-0.297,1.782-0.495,2.97-0.495
	c0.693-0.099,1.386-0.099,2.079-0.099c2.673,0,5.147,0.594,7.424,1.683c0.495,0.198,1.089,0.594,1.485,1.188
	c0.693,0.594,1.089,1.386,1.188,2.178c0.099,0.891-0.495,1.683-1.386,1.881c-0.099,0-0.198,0-0.297,0l0,0
	c-0.297,0-0.594-0.099-0.891-0.396s-0.297-0.693-0.297-0.891c-0.099-0.099-0.198-0.198-0.297-0.198l-0.594-0.297l-0.198-0.099
	c-0.198-0.099-3.563-0.99-3.663-0.99"/>
</svg>
