<svg id="coverlogo" xmlns="http://www.w3.org/2000/svg" width="232" height="49" viewBox="0 0 232 49.5" fill="white"><path d="M177.9 40.5c-2.5-1-5-2.1-7.6-3.1 -0.7-0.3-1-0.8-1-1.5 0-0.5 0.1-1 0.3-1.5 0.5-1.2 0.8-2.4 1.1-3.6 0.2-0.8 0.1-1.7-0.7-2.1 -0.8-0.4-1.3 0.3-1.7 0.9 -0.2 0.2-0.3 0.5-0.4 0.7 -0.8 1.5-1.3 3.2-1.8 4.8 -0.2 0.5-0.2 1.4-0.7 1.5 -0.6 0.1-0.6-0.8-0.9-1.3 -0.3-0.5-0.5-1-0.8-1.4 -0.2-0.3-0.4-0.5-0.6-0.7 -0.2-0.1-0.4-0.2-0.6 0 -0.2 0.2-0.3 0.5-0.1 0.6 0.8 0.5 0.8 1.5 1.2 2.2 1 2 2.4 4 1.8 6.5 -0.1 0.2 0 0.5 0.1 0.7 0.2 0.6 0.5 1.3 1.2 1.1 0.7-0.1 0.7-0.8 0.7-1.4 0.1-1.1-0.4-2-0.6-3 -0.5-2.8 0.3-5.4 1.4-7.9 0.2-0.5 0.4-1.2 1.1-1.5 0 0.2 0.1 0.4 0.1 0.5 0.2 1.7-1 3.1-1 4.8 0 1.4-0.1 2.1 1.2 2.7 2.6 1.3 5.4 2.2 8.2 2.9 0.4 0.1 0.9 0.2 1-0.3C178.8 40.7 178.2 40.7 177.9 40.5z"/><path d="M214 36.8c-0.3-1.4-0.8-2.9-0.1-4.4 0.2-0.4 0.1-0.9-0.3-1.3 -0.1-0.3-0.2-0.6-0.2-0.9 -0.1-0.2-0.1-0.5-0.4-0.5 -0.3 0-0.5 0.2-0.5 0.5 -0.1 0.5-0.2 1.1-0.2 1.6 0 0.5-0.1 0.8-0.7 0.8 -1.6 0.1-3.3 0.3-4.9 0.4 -1.5 0.1-1.5 0.1-1.7-1.3 0-0.7-0.2-1.3-0.4-1.9 -0.1-0.3-0.2-0.7-0.6-0.6 -0.4 0.1-0.6 0.4-0.6 0.9 0.1 0.4 0.2 0.9 0.3 1.3 0.3 1.8 0.3 1.8-1.3 2.2 -0.3 0.2-0.5 0.5-0.8 0.7 -0.3 0.2-0.9 0.3-0.6 0.8 0.3 0.6 0.7 0.4 1.2 0.2 1.4-0.5 1.7-0.4 2.2 0.9 0.3 1.4 0.6 2.8 0.8 4.1 0.1 0.4 0.1 1 0.7 0.9 0.5-0.1 0.4-0.7 0.3-1 -0.1-1.4-0.3-2.7-0.5-4.1 -0.2-1.4-0.1-1.6 1.3-1.7 1-0.1 1.9-0.2 2.9-0.3 2.3-0.2 2.2-0.2 2.5 2.2 0.2 1.8 0.4 3.6 1.1 5.3 0.2 0.5 0.5 0.9 1.1 0.7 0.6-0.2 0.7-0.9 0.4-1.3C214.1 39.7 214.3 38.2 214 36.8z"/><path d="M226.8 26.5c-0.6 0.1-0.6 0.6-0.6 1 0 0.5 0.3 1.1 0.1 1.6 -0.5 1.2-0.9 2.4-1.2 3.7 -0.2 0.8-0.7 1-1.3 0.5 -1.6-1.1-3.1-2.5-4.1-4.2 -0.2-0.5-0.5-0.8-1-1l0 0c-0.7-0.2-0.8 0.2-0.9 0.7 0 0.7 0.5 1.2 1 1.6 1.1 1.8 2.6 3.2 4.4 4.3 0.7 0.4 1 0.8 0.7 1.5 -0.1 0.3-0.1 0.7-0.2 1 -0.9 3.4-1.4 6.8-1.7 10.3 0 0.4 0 0.9 0 1.3 0 0.3 0.1 0.6 0.5 0.6 0.3 0 0.5-0.2 0.6-0.5 0.1-0.4 0.1-0.7 0.2-1.1 0.4-2.1 0.5-4.2 0.9-6.3 0.7-3.6 2-7 3-10.5 0.3-1.2 0.6-2.4 0.6-3.6C227.6 27 227.5 26.5 226.8 26.5z"/><path d="M186.1 37c0.8 0 1 0.8 1.2 2 0 0.2 0.1 0.4 0.1 0.6 0.1 0.2 0.1 0.4 0.1 0.6l0 0.1c0.1 0.4 0.2 0.9-0.4 1.2 -0.1 0-0.2 0.1-0.2 0.2 0 0.1 0 0.2 0.2 0.3 0.3 0.2 0.6 0.4 0.9 0.3 0.3-0.1 0.4-0.3 0.4-0.7l0-0.1c0.2-1.3-0.2-2.5-0.5-3.7 -0.3-0.9 0-1.4 0.8-1.7 0.1 0 0.2-0.1 0.4-0.1 0.5-0.1 0.6-0.1 0.6-0.3 0-0.2-0.1-0.3-0.5-0.3 -0.1 0-0.2 0-0.4 0 -0.1 0-0.2 0-0.3 0l-0.1 0c-0.8 0-1.3-0.3-1.7-1.2 -0.2-0.5-0.4-1-0.6-1.4 -0.5-1.3-1-2.7-1.9-3.9 -0.6-0.9-1-1.3-1.3-1.3 -0.3 0-0.7 0.4-1.3 1.4 -1 1.7-1.4 3.6-1.8 5.4 -0.1 0.5-0.2 1.1-0.4 1.6 -0.1 0.3-0.1 0.5 0 0.5 0.1 0.1 0.3 0.1 0.8 0.1 0.2-0.3 0.3-0.6 0.4-1 0-0.1 0.1-0.3 0.1-0.4 0.3-1.1 0.7-2.6 1.2-4l0-0.1c0.1-0.4 0.3-0.9 0.9-0.9 0.6 0 0.8 0.6 1 1 0.4 1 0.8 2 1.1 2.9 0.1 0.4 0.1 0.7 0 0.9 -0.1 0.3-0.4 0.4-0.8 0.6 -0.2 0.1-0.5 0.2-0.7 0.2 -0.6 0.2-1.2 0.4-1.8 0.5 -0.1 0-0.1 0-0.2 0 -0.2 0-0.5 0.1-0.6 0.2 -0.4 0.4-0.9 0.7-1.3 0.9 -0.6 0.3-1.1 0.6-1.5 1.1 -0.1 0.1-0.1 0.1-0.2 0.2 -0.2 0.1-0.2 0.2-0.2 0.4 0 0.2 0.1 0.2 0.3 0.2 0.1 0 0.3 0 0.4 0.1 0.4 0.1 0.5 0.4 0.6 0.6 0 0.1 0.1 0.2 0.1 0.2 0.3 0.4 0.6 0.8 1.1 0.7 0.5-0.2 0.5-0.6 0.4-1.1 -0.2-0.7 0.1-1.2 0.8-1.6 0.5-0.2 1-0.4 1.6-0.5 0.4-0.1 0.9-0.2 1.3-0.4C185.1 37.2 185.7 37 186.1 37z"/><path d="M197.9 27.6c-2.2-0.7-4.5-0.6-6.7 0.5 -0.2 0.1-0.3 0.2-0.4 0.3 -0.3 0.3-0.5 0.6-0.2 0.9 0.2 0.3 0.6 0.1 0.8 0 1.1-0.5 2.3-0.7 3.6-0.7 0.6 0 1.2 0 1.9 0.2 0.8 0.2 1.1 0.7 0.7 1.4 -0.4 0.9-0.9 1.7-1.4 2.5 -0.4 0.6-0.7 1.3-1.4 1.7 -0.5 0.2-0.8 0.2-0.8-0.4 -0.1-1-0.6-1.9-0.4-2.9 0.1-0.5-0.3-0.7-0.7-0.8 -0.4 0-0.7 0.2-0.6 0.5 0.3 0.7 0.1 1.4 0.3 2.1 0.4 1.8 0.5 3.6 0.9 5.4 0.4 1.9 0.4 3.8 0.6 5.7 0 0.4 0 1 0.6 0.9 0.6 0 0.5-0.6 0.5-1 0-2-0.2-3.9-0.5-5.8 -0.2-1 0.1-1.7 0.8-2.4 1.5-1.5 2.7-3.4 3.5-5.4C199.5 28.9 199.1 28 197.9 27.6z"/><path d="M66.1 46.3L66.1 46.3c-1.7 0-3.5-0.7-5.2-2.2 -3-2.5-4.9-5.9-5.9-10.8 -1-5-0.8-10.2 0.6-16.5 0.1-0.3 0.1-0.6 0.2-0.9 0.2-1 0.4-2.1 1.1-3.1 0.4-0.5 0.8-1 1.3-1.4 0.2-0.1-0.1 0.2 0 0 0.3-0.3 1-0.5 1.4-0.5 0.7 0 1.1 0.1 1.6 0.2 0.7 0.1 1.2-0.2 1.7-0.3 2.7-0.3 5 0.1 7.1 1.2l1.8 1 -1.9 0.8c-0.8 0.3-1.7 0.3-2.3 0.2 -2.3-0.4-4.6-0.1-6.8 0.8 -1.2 0.5-1.9 1.3-2.2 2.7 -0.6 2.7-0.9 5.4-1 8.3 -0.1 2.7 0 5.8 1 8.8 1.1 3.2 2.4 5.6 4.9 7.2 2.7 1.7 4.2 1.5 6.3-1.3 0.2-0.2 0.3-0.4 0.4-0.6l0.1-0.1c0.7-2 0.7-4-0.1-6.3 -0.2-0.5-0.3-0.6-0.3-0.6 -0.3 0-0.7 0.1-0.9 0.2 -1.2 0.4-2.2 0.9-3 1.5 -0.4 0.3-1.1 0.4-1.7 0.3 -0.5-0.1-1-0.4-1.1-0.8 -0.2-0.4-0.1-0.9 0.2-1.2 0.1-0.1 0.1-0.2 0.2-0.3 0.3-0.4 0.8-1.2 1.8-1.2 0.1 0 0.2 0.1 0.3 0 1-0.6 2.3-1.9 3.4-1.9 0.2 0 0.3 0 0.4 0 1.4 0 2.6 0.7 3.4 2.1 0.5 0.9 0.8 2 0.9 3.1 0 0.4 0.1 0.8 0.1 1.2 0.1 0.9 0.2 1.8 0 2.8 -0.3 3.6-3.2 6.9-6.5 7.5C67 46.2 66.6 46.3 66.1 46.3z"/><path d="M103.3 18.9c-0.4-2.7-2.3-4.9-5-5.6 -2.7-0.7-5.3-0.4-7.8 0.8l-0.7 0.3c-2.3 1.1-4.6 2.3-6.3 4.5l-0.3 0.5c-0.1 0.3-0.3 0.5-0.4 0.8 -0.5 0.8-0.4 1.7 0.4 2.5 0.2 0.2 0.6 0.6 1.2 0.6 0.2 0 0.5-0.1 0.7-0.2 0.2-0.1 1-0.6 0.7-1.8 -0.1-0.2 0-0.3 0-0.4 1.3-1.3 2.8-2.4 4.4-3.1l0.1 1.4c0.1 1.9 0.2 3.8 0.4 5.7 0.6 6.1 1.3 12.2 2 18.2l0.1 1.3c0 0.1 0 0.2 0 0.4 0 1.4 0.5 2.1 1.5 2.1l0.1 0c0.6-0.1 1-0.4 1.2-0.6 0.5-0.6 0.3-1.4 0.3-1.9 0-0.1 0-0.2 0-0.3 -0.2-2.2-0.5-4.4-0.7-6.5l-0.3-2.3 0-1.7c2.8-1.4 4.9-3.8 6.5-7.3l0.2-0.3c0.1-0.2 0.2-0.4 0.3-0.6C103.2 23.2 103.6 21.1 103.3 18.9zM99 22.4l0 0.1c-0.8 2.4-2.2 4.5-4.1 6.6l0-0.1c-0.3-2.3-0.6-4.7-0.8-7.1 0-0.6-0.1-1.2-0.2-1.7 -0.1-0.9-0.2-1.7-0.2-2.5 0-0.7 0-0.7 0.7-0.8 0.4-0.1 0.9-0.1 1.3-0.1 0.5 0 0.9 0 1.4 0.1 1.2 0.2 2.2 1.1 2.4 2.2 0.1 0.6 0.3 1.3 0.3 2C99.3 21.5 99.1 22 99 22.4z"/><path d="M75.8 29.7c-0.2 0-0.3 0.2-0.3 0.4l0 0.3c-0.1 0.8-0.2 1.6 0 2.1 0.4 0.9 0.4 1.8 0.4 2.7l0 0.1c0.1 2.5 0.7 4.7 1.9 6.7 0.7 1.1 1.9 1.8 3.3 1.8l0 0c1 0 1.9-0.4 2.5-1.1 1.4-1.6 1.7-3.4 0.9-5.5 -0.1-0.9-0.7-1.5-1.2-2.2 -0.2-0.3-0.4-0.5-0.6-0.8 -0.9-1.3-2.5-2.9-4.9-3.2 -0.8-0.1-1.5-0.3-1.7-1.3C75.9 29.8 75.9 29.7 75.8 29.7zM80.9 42.5c-0.8 0-1.6-0.5-2.2-1.6 -0.8-1.2-1.2-2.4-1.4-3.6 -0.1-0.7-0.3-1.6 0-2.4 0.3-0.8 0.2-1.5 0-2.4l-0.1-0.4 0.4 0.1c1.7 0.4 2.9 1.6 4 2.6 1.1 1.1 2.5 2.9 1.8 5.4 0 0.1-0.1 0.3-0.1 0.4l0 0.1 -0.1 0.2c0 0.1-0.1 0.1-0.1 0.2C82.4 42 81.7 42.5 80.9 42.5z"/><path d="M159.1 36c-0.9-0.6-1.6-0.4-2.4 0.2 -0.8 0.6-1 1.5-1.2 2.3 -0.1 0.5-0.1 1.1 0.4 1.2 0.6 0.1 0.4-0.6 0.6-1 0-0.1 0-0.2 0.1-0.3 0.5-1.6 1.8-2 3-0.8 1.8 1.7 1.8 1.9 0.4 3.8 0 0 0 0.1 0 0.1h0c-1.4 0.7-2.9 1.1-4.3 0.2 -3.2-2.1-4.7-6.4-3.6-9.9 0.1-0.4 0.4-0.6 0.8-0.5 0.8 0.2 0.9 0.2 0.8-0.6 0.1-0.5 0.6-0.5 1-0.5 1.8-0.2 3.5-0.5 5.3-0.1 0.4 0.1 1.1 0.2 1.2-0.2 0.1-0.6-0.6-0.4-1-0.5 -0.2-0.1-0.5-0.1-0.7-0.2 -2.2-0.3-4.4-1-6.3 0.7 -0.2 0.1-0.4 0.2-0.7 0.2 -0.3 0-0.5 0-0.6 0.3 -0.5 0.7-1 1.4-1.2 2.4 -0.5 3.6 0.5 6.8 3 9.4 1 1.1 2.3 1.7 3.9 1.8 2.2 0.1 3.5-1.3 4.7-2.8 0.1-0.1 0.1-0.3 0.1-0.4 0.2-0.9 0-1.6-0.6-2.4C161.1 37.1 160.1 36.6 159.1 36z"/><path d="M143.3 31.2c-0.6-0.4-1.2-0.6-1.8-0.5 -0.3 0.1-0.6 0.1-0.6-0.3 -0.2-0.8-0.8-0.8-1.4-0.8 -1.6 0.1-3.3 0.3-4.9 0.7 -0.7 0.2-1.4 0.5-2-0.1 -0.6-0.5-0.9-0.5-0.9 0.3 0 0.4-0.3 0.5-0.6 0.6 -0.5 0.2-1.1 0.4-1.6 0.5 -1.4 0.3-2.8 0.9-4.2 1.1 -0.7 0.1-1.2 0.2-1.9-0.2 -1.3-0.7-2.6 0.1-2.7 1.6 0 0.6 0 1.2 0.1 1.7 0 0.3 0.1 0.6 0.4 0.6 0.4 0 0.3-0.4 0.3-0.6 0-0.5 0-1 0.2-1.5s0.5-0.7 1-0.6c1.5 0.4 2 1.5 1.1 2.8 -0.1 0.1-0.2 0.3-0.2 0.5 -1 1.5-2.2 1.5-3.3 0.1 -0.3-0.4-0.6-0.8-0.9-1.3 -0.1-0.1-0.2-0.2-0.3-0.1 0 0 0 0 0 0 -0.6-0.1-0.6 0.6-0.7 1 -0.3 2-0.5 4-1.5 5.8 -0.1 0.1-0.2 0.2-0.3 0.3 -0.4 0.4-0.4 1.5-1.1 1.3 -0.7-0.2-0.8-1.1-0.8-1.9 -0.2-2.4-0.5-4.8-0.5-7.2 0-0.5 0-1 0.5-1.4 0.4-0.3 0.4-0.8 0-1.1 -0.5-0.6-0.9-1.2-1-2 -0.1-0.3-0.2-0.7-0.5-0.9 -0.4-0.4-0.8-0.2-0.8 0.2 0 0.7-0.1 1.4 0.2 2 0.4 0.9 0.3 1.2-0.7 1.4 -1.7 0.3-3.4 0.5-5.1 0.8 -0.7 0-0.9-0.5-0.8-1.1 0-1.7 0-3.4-0.1-5.1 0-0.5 0-1.1-0.6-1.1 -0.7 0-0.7 0.6-0.8 1 -0.3 1.2 0.2 2.4 0.1 3.7 0 0.3 0 0.6 0 0.9 0.1 2.1 0.1 2.1-2 2.2 -0.9 0.1-1.8 0.2-2.6 0.3 -0.4 0-0.7 0.2-0.7 0.6 0 0.4 0.3 0.5 0.6 0.6 0.8 0.2 1.6 0 2.5 0 0.6 0 1.2 0 1.7 0 0.5 0 0.8 0.2 0.9 0.8 0 2.3 1.4 4.2 1.5 6.5 0 0.4 0.3 0.6 0.7 0.6 0.4-0.1 0.5-0.4 0.5-0.8 0-0.2-0.1-0.5-0.1-0.7 -0.3-1.6-1.1-3.2-1.3-4.8 -0.2-1.5 0-1.8 1.5-2 1.4-0.2 2.8-0.4 4.1-0.7 1.2-0.2 1.3-0.2 1.4 1 0.2 2.2 0.2 4.4 0.4 6.7 0.1 0.9 0.4 1.7 0.9 2.5 0.6 0.7 1.2 0.8 1.9 0.2 0.6-0.5 0.9-1.2 1.2-1.9 0.9-1.6 1.3-3.3 1.5-5.1 0.6 0.1 0.9 0.6 1.3 1 1 0.7 2.4 0.8 3.3 0 1.1-1 1.8-2.3 1.8-3.9 0-0.4-0.2-0.9 0.3-1.2 0.6 0 1.3 0.1 1.9-0.4 1.2 0 2.2-0.6 3.4-0.9 1-0.3 1.3 0.1 1.4 1 0.3 2.2 0.7 4.3 1 6.5 0 0.3 0.2 0.6-0.1 0.8 -0.2 0.2-0.5 0.3-0.2 0.6 0.4 0.3 0.7 0.7 1.2 0.6 0.3-0.1 0.4-0.4 0.4-0.8 0-0.3-0.1-0.5-0.1-0.8 -0.4-2.6-0.8-5.1-1.3-7.7 -0.1-0.6 0.1-0.9 0.7-1 1.4-0.3 2.8-0.5 4.2-0.8 0.8-0.2 1.1 0.2 1 0.9 -0.3 1.6 0 3.2 0.1 4.8 0.3 2.5 1.6 4 4 4.4 1.9 0.4 3-0.4 3.4-2.3 0.3-1.3-0.2-2.4-0.5-3.6C145.7 33.8 145 32.1 143.3 31.2zM143.4 33c1.2 1.4 2 3.6 1.9 5.4 0 0.2-0.1 0.7-0.2 0.8 -0.2 0.5-1.2 0.9-1.7 0.8 -0.9-0.1-2.1-0.7-2.4-1.8 -0.4-1.4-1-3.1-0.7-4.5C140.6 32.4 142.4 32 143.4 33"/><path d="M22.8 10.7c0 0 0 0 0 0 -1.6-0.2-3.2-0.2-5.1 0.1 -0.9 0.1-2.2 1.7-2.3 3.2 -0.3 3 1.4 5.3 3.2 7.6l0.4 0.5c2.1 2.8 4.5 6.1 6.2 9.9 0.6 1.4 0.8 3 0.6 4.7 0 1.4-0.6 2.8-1.8 4.1 -2.4 2.7-5.4 4.1-8.8 4.1 -0.6 0-1.2 0-1.9-0.1 -3.5-0.5-6-1.9-7.6-4.5 -1.1-1.7-1.2-3.6-0.3-5.4 1.3-3.2 5.3-5.8 9.2-5.8 0.7 0 1.5 0.1 2.1 0.3 0.2 0.1 0.5 0.1 0.7 0.2l0.3 0.1c0.8 0.1 1.6 0.4 2.4 0.8 0.7 0.4 0.9 1.2 0.5 1.9 -0.3 0.6-1.1 0.8-1.7 0.5 -0.6-0.2-1.2-0.3-1.9-0.4 -0.5-0.1-1.1-0.1-1.6-0.2l-0.1 0c-2.9 0-4.9 1.1-6.4 3.5 -0.2 0.2-0.3 0.4-0.5 0.6 -0.4 2.2 0.3 3.4 2.6 4.3 3.1 1.3 5.9 1.2 8.6-0.3 2.5-1.3 3.6-3.9 2.8-6.4 -1.6-3.4-3.3-6.2-5.3-8.5 -1.7-2-3-4.2-4.2-6.3l-0.6-1.1c-0.3-0.5-0.4-1-0.4-1.5 -0.4-1.2-0.9-3-0.4-5 0.4-2.9 2.9-3.9 3.7-4.2 0.9-0.3 1.8-0.5 3-0.5 0.7-0.1 1.4-0.1 2.1-0.1 2.7 0 5.2 0.6 7.5 1.7 0.5 0.2 1.1 0.6 1.5 1.2 0.7 0.6 1.1 1.4 1.2 2.2 0.1 0.9-0.5 1.7-1.4 1.9 -0.1 0-0.2 0-0.3 0l0 0c-0.3 0-0.6-0.1-0.9-0.4 -0.3-0.3-0.3-0.7-0.3-0.9 -0.1-0.1-0.2-0.2-0.3-0.2l-0.6-0.3 -0.2-0.1c-0.2-0.1-3.6-1-3.7-1"/><path d="M37.6 40.9c-0.4 0.3-0.8 0.5-1.2 0.8 -0.8 0.5-1.6 1.2-2.6 1.5 -2.7 0.7-4.6-2.3-4.3-4.4 0.1-0.8 0.5-1.7 1.7-2 1.7-0.5 3.3-0.8 5-1.1 0.3 0 0.6 0 0.6-0.4 0-0.4-0.3-0.5-0.6-0.6 -0.2 0-0.4 0-0.6 0 -1.8 0-3.6 0.1-5.3 1 -1 0.5-1.1 0.4-1.1-0.7 0-0.9 0.1-1.7 0-2.6 0-0.7 0.3-1.1 0.9-1.3 1.8-0.7 3.6-0.9 5.5-0.7 0.6 0 1.2 0.1 1.7-0.3 -2.4-0.9-4.7-1-7.2-0.3 -0.6 0.1-1.1-0.1-1.4-0.7 -0.1-0.3-0.4-0.6-0.8-0.5 -0.4 0.1-0.3 0.5-0.3 0.8 0 0.3 0 0.7 0 1 -0.1 0.2-0.1 0.4-0.2 0.5 -0.9 0.6-1.1 1.2 0 1.7 0.1 0.1 0.2 0.3 0.3 0.5 0.2 0.9 0.4 1.9 0.1 2.8 -0.2 0.5-0.4 1.2-0.3 1.7 0.2 1.6 0.5 3.2 1.2 4.6 0.7 1.5 1.9 2.5 3.7 2.6 2.5 0.1 4-1.5 5.6-3.2 0.1-0.2 0.2-0.4 0-0.6C38 40.7 37.8 40.7 37.6 40.9z"/><path d="M53.6 41.3c-1-0.7-2-1.4-3-2.1 -0.8-0.5-1.6-0.8-2.5-1 -1.3-0.2-2.7 0-3.9-0.6 -0.1-0.5 0.1-1 0.3-1.5 0.4-0.7 0.7-1.3 0.9-2.1 0.4-0.8 0.5-1.7 0.9-2.6 0.5-1.2 0.7-2.5 0.1-3.8 -0.5-1.2-1.5-1.5-2.6-0.8 -1 0.6-1.6 1.5-2 2.6 -0.2 0.6-0.4 1.2-1.1 1.5 -0.5 0.2-0.8 0.9-0.6 1.5 0.6 2.1 0.4 4.2 0.4 6.4 0 0.7-0.3 1.3-0.3 2 0 0.5 0.2 0.8 0.7 0.9 0.5 0.1 0.6-0.3 0.7-0.7 0.3-1 0.3-2 0.2-3.1 -0.2-2.7-0.3-5.5 1.1-8 0.3-0.7 0.7-1.4 1.3-1.8 0.6-0.5 1-0.3 1.2 0.4 0.1 0.4 0.3 0.8 0.4 1.1 0 0.4 0 0.7-0.2 1.1 -1.1 2-1.8 4.1-2.7 6.1 -0.4 0.9-0.1 1.5 0.8 1.8 0 0 0 0 0 0 1 0.4 2 0.6 3.1 0.7 1.6 0.1 3.2 0.5 4.6 1.5 0.6 0.4 1.3 0.7 2 1 0.3 0.1 0.6 0.2 0.8-0.1C54.2 41.6 53.8 41.5 53.6 41.3z"/></svg>