<?xml version="1.0" encoding="utf-8"?>
<!-- Generator: Adobe Illustrator 16.0.0, SVG Export Plug-In . SVG Version: 6.00 Build 0)  -->
<!DOCTYPE svg PUBLIC "-//W3C//DTD SVG 1.1//EN" "http://www.w3.org/Graphics/SVG/1.1/DTD/svg11.dtd">
<svg version="1.1" id="cover-logo" xmlns="http://www.w3.org/2000/svg" xmlns:xlink="http://www.w3.org/1999/xlink" x="0px" y="0px"
	 width="860.394px" height="860.393px" viewBox="-143.604 215.634 860.394 860.393"
	 enable-background="new -143.604 215.634 860.394 860.393" xml:space="preserve">
<a xlink:href="../newgallery/streetwalking.html"  target="_parent">
	<path fill="none" stroke="#FFFFFF" stroke-width="10" d="M290.398,1003.635c4.547,22.965-3.755,75.526-104.383,66.32
		c-82.44-7.521-179.213-89.386-222.41-146.602c-61.583-81.666-102.209-159.273-102.209-276.872
		c0-117.797,53.872-229.258,131.073-306.371c76.903-76.813,176.938-119.478,294.073-119.478
		c133.843,0,217.171,49.594,337.569,157.788c69.787,62.659,87.678,166.896,87.678,268.062c0,101.167-31.236,197.482-94.103,267.171
		c-83.824,92.752-262.741,253.609-308.606,77.509c-3.163-49.494-4.547-43.356-4.547-90.871c0-26.034,4.547-91.367,4.547-91.367
		s90.843-3.563,118.816-3.563c23.724,0,87.678,3.563,87.678,3.563s3.065-67.114,3.065-89.288c0-19.5-3.065-77.607-3.065-77.607
		s-84.626-3.563-116.753-3.563c-19.473,0-89.769,3.563-89.769,3.563v-46.028c0,0,49.734-2.428,64.266-2.428
		c20.659,0,55.862,2.72,76.522,2.72c11.467,0,45.865,0,45.865,0s39.046-32.318,49.425-43.009
		c10.182-10.493,33.016-42.144,33.016-42.144s-15.716-7.956-41.714-34.979c-11.169-11.683-40.726-50.105-40.726-50.105
		s-30.544,4.542-90.248-0.01c-51.896-3.96-96.378-0.004-96.378-0.004s-3.854-13.765,0-45.144c0.494-3.959,0-16.036,0-16.036
		s-19.473-3.763-25.996-3.86c-7.71-0.1-30.544,3.859-30.544,3.859s-0.988,21.875,0,29.103c4.547,32.964,0,33.655,0,33.655
		s-59.605-1.483-79.573-1.483c-28.271-0.099-113.184,1.483-113.184,1.483l-2.074,82.261l2.074,86.219c0,0,42.506,0.595,56.542,0
		c25.306-1.187,70.878-0.594,96.185,1.484c9.094,0.793,39.543-1.484,39.543-1.484v45.931c0,0-45.476,4.06-61.487,4.06
		c-17.596,0-72.854-4.06-72.854-4.06s-27.234,27.42-36.625,39.794c-7.81,10.195-32.102,50.583-32.102,50.583
		s28.776,25.44,36.685,34.25c9.292,10.295,32.133,42.367,32.133,42.367s58.126,3.564,73.448,3.564
		c18.385,0,61.188-3.564,61.188-3.564s-4.151,66.916-4.052,90.377c0.099,22.372-0.989,66.817,4.053,91.862
		C254.516,1000.862,290.398,992.943,290.398,1003.635z"/>
<rect x="-138.911" y="220.326" fill-opacity="0" stroke="#FFFFFF" stroke-width="0" width="851.007" height="851.008"/>
</a>
</svg>
