<?xml version="1.0" encoding="utf-8"?>
<!-- Generator: Adobe Illustrator 16.0.0, SVG Export Plug-In . SVG Version: 6.00 Build 0)  -->
<!DOCTYPE svg PUBLIC "-//W3C//DTD SVG 1.1//EN" "http://www.w3.org/Graphics/SVG/1.1/DTD/svg11.dtd">
<svg version="1.1" id="cover-logo" xmlns="http://www.w3.org/2000/svg" xmlns:xlink="http://www.w3.org/1999/xlink" x="0px" y="0px"
	 width="860.395px" height="860.394px" viewBox="-143.605 215.633 860.395 860.394"
	 enable-background="new -143.605 215.633 860.395 860.394" xml:space="preserve">
<a xlink:href="../newgallery/thenightof.html"  target="_parent">
	<path fill="none" stroke="#FFFFFF" stroke-width="10" d="M402.714,1064.385c-163.646,17.473-267.538-0.424-332.299-43.1
		c-62.954-41.51-121.106-85.243-156.139-154.71c-31.629-62.688-49.545-134.168-49.545-210.094c0-35.792-7.507-72.008,0-105.364
		c29.226-129.719,123.41-236.248,233.609-294.488c56.852-30.074,121.408-35.898,189.27-35.898
		c103.994,0,183.165-7.625,281.252,112.354C712.392,508.76,708.89,560.118,711.693,714.193c1.199,68.727-8.508,90.01-34.732,148.252
		c-63.057,139.886-102.791,208.609-390.35,159.581c-19.617-4.978-27.324-15.143-21.819-25.414c3.203-5.931,9.608-1.589,25.823,3.813
		c19.019,6.353,40.736-10.272,33.73-17.686c-6.005-6.354-35.732-2.858-41.737-1.801c-14.013,2.118-29.026,6.354-39.035-1.059
		c-7.007-5.295-13.012-18.002-20.018-23.297c-7.007-6.354-15.015-10.591-21.02-18.002c52.047-8.472,109.098,12.708,161.145-5.294
		c-3.002-22.238-13.011-20.12-31.028-18.002c-15.013,1.059-29.024,3.176-44.039,3.176c-27.023,0-53.048-4.235-79.071-4.235
		c0,0-2.401,0.423-3.002,0c-5.704-3.706-5.005-11.646-8.007-18.002c21.02-10.589,61.056-2.116,85.076-2.116
		c28.024,0,56.05,2.238,84.074,1.181c-7.005-25.416-23.021-19.998-44.039-19.998c-13.011,0-26.023,0-39.034,0
		c-25.021,1-49.045,4-74.067,4h-3.002c-5.004-3-8.008-8.476-9.008-14.83c27.023-7.411,61.056-2.119,90.08-3.178
		c26.023-1.061,53.048,1.058,79.07-0.001c-3.002-6.354-7.005-12.708-11.01-19.063l-2.001-1.06
		c-25.022,1.059-51.047-4.236-76.068-4.236c-17.215,0-59.854,13.449-80.071,6.354c-6.807-2.33-3.503-11.119-6.006-18.002
		c18.016-5.295,43.038,4.235,62.057,4.235c20.019,0,38.033-1.061,57.051-3.178c12.011-1.059,47.042,4.236,55.05-3.177
		c9.008-7.413,4.004-26.475-3.003-29.649c-7.007-3.178-20.019,1.06-26.023,2.117c-19.017,1.059-45.04,8.472-62.056,4.235
		c-24.021-8.473-54.048-9.53-78.069-4.235c0-11.648,0.4-16.943-2.002-29.65c-5.104-26.474-13.012-55.063-23.021-80.479
		c-12.012-28.591-27.024-46.593-43.039-81.538c-10.509-22.873-18.616-55.064-17.017-80.479c2.503-39.604,5.706-64.596,15.716-85.985
		c40.336-86.516,146.432-129.933,239.514-88.633c27.524,12.178,57.052,38.121,73.065,66.713
		c15.015,25.415,21.02,56.124,22.021,86.834c1.001,21.178-1.001,39.18-6.006,59.3c-8.007,34.945-23.833,55.063-42.852,82.597
		c-27.023,39.181-51.859,72.22-51.859,120.931v15.145c-31-2.967-25.71-1.061-35.72,1.059c3.203-16.838-7.601-51.889-22.413-61.102
		c-3.305-2.117-3.25-5.611-3.25-5.611s10.485-42.888,17.992-63.007c16.614-44.581,51.034-94.245,32.019-142.957
		c0-2.117-1.008-3.178-2.009-5.294l-1.005-1.06c-9.008-11.648-29.026-3.178-35.032,8.472c-11.011,21.179,10.008,23.297,16.014,5.295
		c12.011-31.769-56.55-20.016-44.04-2.118c10.809,15.354,29.025-18.002,11.008-25.414c-17.015-6.354-50.443,7.2-45.04,22.237
		c15.715,43.84,35.031-50.829,28.025-70.948c-13.012-36.004-27.226-35.264-52.047-27.003c-4.404,1.481-12.512,7.095-15.014,11.118
		c-22.819,37.063-6.006,78.361,7.007,124.955c7.707,27.426,16.014,44.475,24.021,70.947c6.006,20.119,9.239,42.357,14.244,64.596
		c2.002,9.529,5.238,19.061,7.238,29.649v2.118c-19,18.002-19.25,36.004-19.25,61.418"/>
<rect x="-138.911" y="220.326" fill-opacity="0" stroke="#FFFFFF" stroke-width="0" width="851.008" height="851.008"/>
</a>
</svg>
